<?xml version="1.0" encoding="utf-8"?>
<!-- Generator: Adobe Illustrator 27.0.0, SVG Export Plug-In . SVG Version: 6.00 Build 0)  -->
<svg version="1.1" id="Layer_2_00000015315090033191918410000013145333570773539260_"
	 xmlns="http://www.w3.org/2000/svg" xmlns:xlink="http://www.w3.org/1999/xlink" x="0px" y="0px" viewBox="0 0 205 224"
	 style="enable-background:new 0 0 205 224;" xml:space="preserve">
<style type="text/css">
	.st0{fill:#004182;}
	.st1{fill:#0A66C2;}
	.st2{fill:url(#SVGID_1_);}
	.st3{fill:url(#SVGID_00000166636580348012768570000005297518948122242721_);}
</style>
<g>
	<path class="st0" d="M202.9,135.7c-19.3,0-36.8,10.7-46.4,27.3c-11,19.3-29.7,29.8-54,29.9c-24.2,0-42.7-10.4-53.7-29.8
		c-9.6-16.8-27.1-27.3-46.4-27.3H2.1c8.2,54.7,45.3,87.6,100.3,87.6C157.8,223.4,194.9,190.5,202.9,135.7L202.9,135.7z"/>
	<path class="st1" d="M102.3,0.7C41.9,0.7,3.2,40.5,0.6,105.2l0,0c19,0,35.9-12.2,41.8-30.2C51.7,46.7,72.8,31,102.3,31
		c29.8,0,51,15.5,60.2,43.9c5.9,18.1,22.9,30.1,41.9,30.1l0,0C201.9,40.3,163.1,0.6,102.3,0.7z"/>
	
		<linearGradient id="SVGID_1_" gradientUnits="userSpaceOnUse" x1="-31.1302" y1="173.1267" x2="70.677" y2="173.1267" gradientTransform="matrix(1 0 0 -1 0 226)">
		<stop  offset="0" style="stop-color:#006EFF"/>
		<stop  offset="1" style="stop-color:#3FA5FF"/>
	</linearGradient>
	<path class="st2" d="M0.5,105.2c0,0-1-103,101.8-104.6C30.6,30.5,63.5,101.1,0.5,105.2z"/>
	
		<linearGradient id="SVGID_00000090278139006633779110000009510324359287289483_" gradientUnits="userSpaceOnUse" x1="87.2697" y1="46.4287" x2="202.8592" y2="46.4287" gradientTransform="matrix(1 0 0 -1 0 226)">
		<stop  offset="0" style="stop-color:#1999FF"/>
		<stop  offset="0.1941" style="stop-color:#1690F6"/>
		<stop  offset="0.5166" style="stop-color:#0F78DC"/>
		<stop  offset="0.9258" style="stop-color:#0252B3"/>
		<stop  offset="0.998" style="stop-color:#004AAB"/>
	</linearGradient>
	<path style="fill:url(#SVGID_00000090278139006633779110000009510324359287289483_);" d="M202.9,135.9c0,0-8,96.4-115.6,86.8
		C162.9,204.5,139.6,140.5,202.9,135.9z"/>
</g>
</svg>
