<?xml version="1.0" encoding="UTF-8"?><svg id="Layer_1" xmlns="http://www.w3.org/2000/svg" xmlns:xlink="http://www.w3.org/1999/xlink" viewBox="0 0 45.92 45.92"><defs><style>.cls-1{fill:url(#linear-gradient);}</style><linearGradient id="linear-gradient" x1="0" y1="22.96" x2="45.92" y2="22.96" gradientUnits="userSpaceOnUse"><stop offset="0" stop-color="#a189fa"/><stop offset="1" stop-color="#745ee7"/></linearGradient></defs><path class="cls-1" d="M20.41,9.01l2.88,7.1c1.2,2.97,3.56,5.32,6.53,6.53l7.1,2.88c1.31.53,1.31,2.39,0,2.92l-7.1,2.88c-2.97,1.2-5.32,3.56-6.53,6.53l-2.88,7.1c-.53,1.31-2.39,1.31-2.92,0l-2.88-7.1c-1.2-2.97-3.56-5.32-6.53-6.53l-7.1-2.88c-1.31-.53-1.31-2.39,0-2.92l7.1-2.88c2.97-1.2,5.32-3.56,6.53-6.53l2.88-7.1c.53-1.31,2.39-1.31,2.92,0ZM37.89.67l.84,2.43c.66,1.91,2.17,3.42,4.08,4.08l2.43.84c.9.31.9,1.58,0,1.89l-2.43.84c-1.92.66-3.42,2.17-4.08,4.08l-.84,2.43c-.31.9-1.58.9-1.89,0l-.84-2.43c-.66-1.91-2.17-3.42-4.08-4.08l-2.43-.84c-.9-.31-.9-1.58,0-1.89l2.43-.84c1.92-.66,3.42-2.17,4.08-4.08l.84-2.43c.31-.9,1.58-.9,1.89,0Z"/></svg>