<?xml version="1.0" encoding="UTF-8"?><svg id="Layer_1" xmlns="http://www.w3.org/2000/svg" viewBox="0 0 426.67 512"><defs><style>.cls-1{fill:#472be0;}</style></defs><g id="_01_align_center"><path class="cls-1" d="M212.22,512l-7.55-3.35C196.27,504.96,0,416.32,0,255.81V116.63c.02-27.47,17.66-51.83,43.75-60.42L213.33,0l169.58,56.21c26.1,8.58,43.74,32.94,43.75,60.42v139.18c0,182.98-198.14,250.77-206.59,253.59l-7.85,2.6ZM213.33,44.74L57.26,96.49c-8.71,2.85-14.6,10.97-14.59,20.14v139.18c0,117.21,137.39,193.24,171.67,210.37,34.22-13.76,169.66-76.76,169.66-210.37V116.63c0-9.16-5.88-17.29-14.59-20.14l-156.07-51.75Z"/><path class="cls-1" d="M194.37,310.04h-.7c-10.91-.17-21.28-4.79-28.69-12.8l-49.19-51.2,30.74-29.48,47.87,49.92,110.53-110.53,30.17,30.17-112.23,112.23c-7.55,7.54-17.81,11.75-28.48,11.69Z"/></g></svg>