<?xml version="1.0" encoding="UTF-8"?>
<svg id="Layer_1" xmlns="http://www.w3.org/2000/svg" version="1.1" viewBox="0 0 512 512">
  <!-- Generator: Adobe Illustrator 29.2.1, SVG Export Plug-In . SVG Version: 2.1.0 Build 116)  -->
  <defs>
    <style>
      .st0 {
        fill: #fff;
      }
    </style>
  </defs>
  <path class="st0" d="M320,426.7H106.7c-58.9,0-106.6-47.8-106.7-106.7V106.7C0,47.8,47.8,0,106.7,0h213.3c58.9,0,106.6,47.8,106.7,106.7v213.3c0,58.9-47.8,106.6-106.7,106.7ZM106.7,42.7c-35.3,0-64,28.7-64,64v213.3c0,35.3,28.7,64,64,64h213.3c35.3,0,64-28.7,64-64V106.7c0-35.3-28.7-64-64-64H106.7ZM512,405.3V128c0-11.8-9.6-21.3-21.3-21.3s-21.3,9.6-21.3,21.3v277.3c0,35.3-28.7,64-64,64H128c-11.8,0-21.3,9.6-21.3,21.3s9.6,21.3,21.3,21.3h277.3c58.9,0,106.6-47.8,106.7-106.7Z"/>
</svg>