<?xml version="1.0" encoding="utf-8"?>
<!-- Generator: Adobe Illustrator 27.0.0, SVG Export Plug-In . SVG Version: 6.00 Build 0)  -->
<svg version="1.1" id="Layer_1" xmlns="http://www.w3.org/2000/svg" xmlns:xlink="http://www.w3.org/1999/xlink" x="0px" y="0px"
	 viewBox="0 0 24 24" style="enable-background:new 0 0 24 24;" xml:space="preserve">
<style type="text/css">
	.st0{fill:#0A6ED4;}
</style>
<path class="st0" d="M13.9,3.1l-9.8,9.8c-1.6,1.6-2.4,3.7-2.4,5.9v1.9c0,0.9,0.7,1.7,1.7,1.7h1.9c2.2,0,4.3-0.9,5.9-2.4l9.8-9.8
	c1.9-1.9,1.9-5.1,0-7S15.8,1.1,13.9,3.1z M8.8,17.6c-0.9,0.9-2.2,1.5-3.5,1.5H4.9v-0.3c0-1.3,0.5-2.6,1.5-3.5l5.7-5.7l2.3,2.3
	C14.5,11.9,8.8,17.6,8.8,17.6z M18.6,7.8l-1.7,1.7l-2.3-2.3l1.7-1.7c0.6-0.6,1.7-0.6,2.3,0S19.2,7.1,18.6,7.8z"/>
</svg>
