<?xml version="1.0" encoding="utf-8"?>
<!-- Generator: Adobe Illustrator 27.0.0, SVG Export Plug-In . SVG Version: 6.00 Build 0)  -->
<svg version="1.1" id="Layer_1" xmlns="http://www.w3.org/2000/svg" xmlns:xlink="http://www.w3.org/1999/xlink" x="0px" y="0px"
	 viewBox="0 0 50 50" style="enable-background:new 0 0 50 50;" xml:space="preserve">
<style type="text/css">
	.st0{fill:#003D87;}
	.st1{fill:#FFFFFF;}
</style>
<g>
	<circle class="st0" cx="25" cy="25" r="24"/>
</g>
<path class="st1" d="M25.2,25c3.6,0,6.5-2.9,6.5-6.5S28.8,12,25.2,12s-6.5,2.9-6.5,6.5C18.7,22.1,21.6,25,25.2,25z M25.2,14.1
	c2.4,0,4.3,1.9,4.3,4.3s-1.9,4.3-4.3,4.3s-4.3-1.9-4.3-4.3S22.8,14.1,25.2,14.1z"/>
<path class="st1" d="M25.2,27.2c-5.4,0-9.8,4.4-9.8,9.8c0,0.6,0.5,1.1,1.1,1.1c0.6,0,1.1-0.5,1.1-1.1c0-4.2,3.4-7.6,7.6-7.6
	s7.6,3.4,7.6,7.6c0,0.6,0.5,1.1,1.1,1.1s1.1-0.5,1.1-1.1C35,31.5,30.6,27.2,25.2,27.2z"/>
</svg>
